<svg id="Layer_1" data-name="Layer 1" xmlns="http://www.w3.org/2000/svg" viewBox="0 0 176.26 26.25"><defs><style>.cls-1{fill:#dfe221;}</style></defs><path class="cls-1" d="M10.61,7.15a4.59,4.59,0,0,1,4,2,5.89,5.89,0,0,1,1.08,3.53,5.81,5.81,0,0,1-1.27,3.8,4.69,4.69,0,0,1-3.77,1.71H6.43V9.6H5.69l.74-2.45ZM9.48,15.69h.24A2.37,2.37,0,0,0,12,14.35a3.54,3.54,0,0,0,.41-1.68,3.19,3.19,0,0,0-.89-2.35A2.41,2.41,0,0,0,9.72,9.6H9.48Z"/><path class="cls-1" d="M16.47,7.15h3.05v11H16.47Z"/><path class="cls-1" d="M28.58,11.52V14H24.05v1.72h5.58v2.46H21V9.6h-.75L21,7.15h8.48L28.74,9.6H24.05v1.92Z"/><path class="cls-1" d="M36.7,7.15h3v11h-3l-3-5.44v5.44h-3V9.6h-.75l.75-2.45h3l3,5.43Z"/><path class="cls-1" d="M45.6,7.15h4.32L49.18,9.6H46.5a2.39,2.39,0,0,0-2.23,1.33,3.46,3.46,0,0,0-.44,1.74A3.17,3.17,0,0,0,44.72,15a2.49,2.49,0,0,0,1.78.68h.22V12.83h3.05v5.32H45.6a4.59,4.59,0,0,1-4-2,5.93,5.93,0,0,1-1.08-3.55,5.79,5.79,0,0,1,1.27-3.8A4.71,4.71,0,0,1,45.6,7.15Z"/><path class="cls-1" d="M62.45,11.47A2.57,2.57,0,0,0,61,9.59a1.89,1.89,0,0,0-2.4.84A4.17,4.17,0,0,0,58,12.66a3.34,3.34,0,0,0,1.08,2.8,1.79,1.79,0,0,0,1.11.39,2.07,2.07,0,0,0,1.8-1,3.16,3.16,0,0,0,.43-1l2.85.83a5,5,0,0,1-2.6,3.1,5.48,5.48,0,0,1-8-5.13,5.42,5.42,0,0,1,2-4.47A5.51,5.51,0,0,1,60.22,7,5.31,5.31,0,0,1,63.8,8.27a5.24,5.24,0,0,1,1.5,2.37Z"/><path class="cls-1" d="M68.65,7.15h3.66l3.47,11h-3.2l-.37-1.29H68.76l-.36,1.29H65.2Zm1.84,3.37-1.07,3.89h2.14Z"/><path class="cls-1" d="M84.85,15.69v2.46H76.51V9.6h-.75l.75-2.45h3v8.54Z"/><path class="cls-1" d="M89.83,7.15a4.59,4.59,0,0,1,4,2,5.89,5.89,0,0,1,1.08,3.53,5.81,5.81,0,0,1-1.27,3.8,4.69,4.69,0,0,1-3.77,1.71H85.65V9.6h-.74l.74-2.45ZM88.7,15.69h.24a2.37,2.37,0,0,0,2.25-1.34,3.54,3.54,0,0,0,.41-1.68,3.19,3.19,0,0,0-.89-2.35,2.41,2.41,0,0,0-1.77-.72H88.7Z"/><path class="cls-1" d="M103.4,11.52V14H98.87v1.72h5.58v2.46H95.82V9.6h-.75l.75-2.45h8.49l-.75,2.45H98.87v1.92Z"/><path class="cls-1" d="M110.87,7.15a3.28,3.28,0,0,1,2.86,1.46,4,4,0,0,1,.69,2.29,3.45,3.45,0,0,1-1.07,2.62,3.34,3.34,0,0,1-1.07.65l2.65,4h-3.49l-2.22-3.74h-.68v3.74h-3.05V9.6h-.74l.74-2.45ZM108.54,9.6V12H110a1,1,0,0,0,1.08-.7,1.25,1.25,0,0,0,.09-.46,1.13,1.13,0,0,0-.56-1A1.25,1.25,0,0,0,110,9.6Z"/><path class="cls-1" d="M118.29,7.15H122l3.47,11h-3.2l-.37-1.29H118.4L118,18.15h-3.2Zm1.84,3.37-1.07,3.89h2.13Z"/><path class="cls-1" d="M135.76,7.15a3.27,3.27,0,0,1,2.86,1.46,4,4,0,0,1,.69,2.29,3.45,3.45,0,0,1-1.07,2.62,3.4,3.4,0,0,1-1.06.65l2.64,4h-3.49l-2.22-3.74h-.67v3.74h-3.06V9.6h-.74l.74-2.45ZM133.44,9.6V12h1.41a1,1,0,0,0,1.08-.7,1.25,1.25,0,0,0,.09-.46,1.12,1.12,0,0,0-.55-1,1.29,1.29,0,0,0-.62-.15Z"/><path class="cls-1" d="M143.18,7.15h3.67l3.46,11h-3.2l-.37-1.29H143.3l-.37,1.29h-3.2ZM145,10.52,144,14.41h2.14Z"/><path class="cls-1" d="M158.15,11.47a2.57,2.57,0,0,0-1.47-1.88,2,2,0,0,0-.75-.15,1.92,1.92,0,0,0-1.65,1,4.17,4.17,0,0,0-.55,2.23,3.34,3.34,0,0,0,1.08,2.8,1.79,1.79,0,0,0,1.11.39,2,2,0,0,0,1.79-1,3,3,0,0,0,.44-1l2.85.83a5,5,0,0,1-2.6,3.1,5.48,5.48,0,0,1-8-5.13,5.42,5.42,0,0,1,2-4.47A5.49,5.49,0,0,1,155.92,7a5.31,5.31,0,0,1,3.58,1.31,5.24,5.24,0,0,1,1.5,2.37Z"/><path class="cls-1" d="M169.34,11.52V14h-4.53v1.72h5.58v2.46h-8.63V9.6H161l.74-2.45h8.49L169.5,9.6h-4.69v1.92Z"/></svg>